<?xml version="1.0" encoding="UTF-8" standalone="no"?>
<!DOCTYPE svg PUBLIC "-//W3C//DTD SVG 1.1//EN" "http://www.w3.org/Graphics/SVG/1.1/DTD/svg11.dtd">
<svg xmlns="http://www.w3.org/2000/svg" version="1.1" viewBox="0.00 0.00 680.00 680.00">
<path fill="#000000" d="
  M 523.06 93.22
  Q 523.19 93.25 523.31 93.29
  Q 523.43 93.32 523.53 93.40
  C 584.45 140.40 627.62 207.57 642.95 283.19
  C 659.87 366.58 639.30 454.44 589.44 522.20
  C 580.76 534.00 571.40 544.83 561.52 555.63
  Q 554.50 563.29 547.30 569.68
  C 532.46 582.85 516.66 594.90 499.64 605.16
  C 485.16 613.90 473.46 619.98 457.26 626.73
  Q 410.64 646.17 360.41 649.52
  C 349.08 650.28 335.96 650.01 323.75 650.00
  Q 318.68 649.99 307.27 648.60
  Q 286.19 646.03 273.50 643.17
  Q 266.86 641.67 248.82 636.11
  Q 223.07 628.16 201.71 617.32
  C 171.50 601.99 141.28 580.67 117.89 556.36
  Q 98.93 536.65 80.85 510.41
  Q 65.70 488.42 52.59 457.20
  Q 32.36 409.02 30.20 358.50
  C 29.57 343.79 29.50 325.40 31.17 309.79
  C 47.05 161.25 168.58 44.67 316.76 31.32
  Q 325.87 30.50 353.75 31.03
  Q 377.14 31.47 403.75 37.42
  Q 456.66 49.26 502.07 78.74
  Q 511.93 85.14 521.54 91.91
  Q 522.07 92.27 522.43 92.78
  Q 522.67 93.11 523.06 93.22
  Z
  M 264.06 550.20
  C 259.72 549.43 255.38 547.22 251.73 545.71
  Q 231.13 537.17 212.74 524.57
  C 210.08 522.75 208.98 522.42 208.98 519.25
  Q 209.02 314.61 209.00 110.00
  A 0.89 0.88 -15.7 0 0 207.65 109.25
  C 205.50 110.56 203.23 111.36 201.23 112.81
  C 197.30 115.66 192.56 118.64 189.22 121.01
  Q 154.30 145.86 129.92 176.93
  Q 102.45 211.94 87.26 256.15
  C 67.75 312.94 69.14 374.59 88.92 431.04
  Q 90.11 434.45 92.06 438.87
  C 94.90 445.31 97.75 452.49 100.62 458.12
  Q 112.31 481.13 127.77 501.85
  Q 127.94 502.07 128.21 502.71
  C 128.57 503.57 129.42 503.89 129.84 504.41
  Q 142.15 519.55 156.07 533.22
  C 156.64 533.78 157.40 534.17 158.12 534.88
  Q 162.85 539.60 169.97 545.51
  Q 194.96 566.23 223.95 580.51
  C 256.04 596.32 290.94 604.49 324.75 606.56
  Q 362.03 608.85 400.54 600.13
  C 493.68 579.06 569.22 504.10 594.86 412.89
  C 598.76 399.02 601.85 384.27 603.40 371.00
  C 610.72 308.28 594.08 244.48 557.96 191.77
  Q 554.73 187.05 551.29 182.66
  A 1.65 1.64 -33.6 0 0 549.18 182.24
  Q 547.57 183.15 546.60 184.11
  Q 533.67 196.93 520.69 209.67
  A 1.37 1.36 -40.0 0 0 520.53 211.44
  Q 530.43 225.44 538.61 240.62
  C 546.92 256.05 552.89 272.36 557.24 289.26
  C 562.23 308.62 563.60 327.83 563.06 347.75
  C 562.45 370.75 558.03 393.82 550.31 415.52
  C 542.80 436.65 532.30 457.08 518.65 474.88
  Q 511.56 484.12 503.50 492.95
  A 0.78 0.77 -46.3 0 1 502.38 492.98
  L 342.90 334.73
  Q 341.79 333.62 342.90 332.52
  C 364.75 310.84 386.41 289.35 407.61 267.46
  Q 433.84 240.39 460.70 213.95
  Q 465.16 209.55 475.03 198.91
  C 487.57 185.40 501.03 172.55 513.63 158.93
  C 516.31 156.02 519.74 152.92 522.69 149.72
  A 0.60 0.59 -46.4 0 0 522.67 148.90
  C 484.23 110.80 433.84 84.85 380.37 76.74
  C 361.85 73.93 344.49 73.68 326.50 74.12
  Q 297.59 74.83 269.75 82.58
  C 268.66 82.89 267.01 82.81 265.78 83.48
  A 0.80 0.80 0.0 0 0 265.36 84.23
  C 265.52 86.84 265.00 89.61 265.00 91.89
  Q 265.00 320.11 265.00 549.41
  A 0.80 0.80 0.0 0 1 264.06 550.20
  Z"
/>
<path fill="#000000" d="
  M 435.39 144.63
  Q 424.24 155.67 413.30 166.91
  C 390.49 190.35 366.78 212.91 344.38 236.75
  C 331.37 250.60 317.88 263.63 304.55 276.96
  A 0.32 0.32 0.0 0 1 304.00 276.73
  L 304.01 121.00
  A 1.84 1.83 87.4 0 1 305.68 119.17
  C 314.08 118.40 323.17 117.19 331.15 117.03
  Q 387.23 115.94 437.48 141.71
  A 0.77 0.76 -51.5 0 1 437.62 142.97
  C 436.89 143.59 436.08 143.95 435.39 144.63
  Z"
/>
<path fill="#000000" d="
  M 157.79 211.80
  Q 157.03 213.14 157.03 214.00
  Q 156.99 341.83 157.00 469.67
  Q 157.00 470.29 156.61 469.81
  Q 151.80 463.94 148.57 458.73
  Q 126.68 423.40 119.17 385.37
  C 108.47 331.14 118.16 275.13 145.54 228.08
  C 148.65 222.73 152.90 217.17 156.46 211.57
  A 0.65 0.65 0.0 0 1 157.22 211.29
  L 157.65 211.43
  Q 157.95 211.52 157.79 211.80
  Z"
/>
<path fill="#000000" d="
  M 344.95 451.45
  Q 345.54 451.21 345.96 451.81
  Q 347.32 453.77 348.60 454.93
  Q 352.64 458.55 356.43 462.42
  C 382.54 489.02 409.65 514.59 435.69 541.25
  A 0.51 0.51 0.0 0 1 435.58 542.05
  Q 429.12 545.68 421.99 548.41
  C 402.32 555.96 379.80 561.64 357.99 563.39
  C 341.55 564.71 322.62 564.56 306.54 561.69
  C 303.97 561.24 304.01 558.68 304.01 556.19
  Q 303.98 484.97 304.02 413.07
  Q 304.02 412.33 304.74 412.50
  C 306.30 412.87 307.50 414.71 308.42 415.53
  Q 318.03 424.16 326.91 433.54
  C 329.82 436.62 333.41 439.76 336.50 443.08
  A 1.54 1.53 76.8 0 0 337.17 443.50
  Q 337.31 443.55 337.46 443.60
  Q 337.58 443.64 337.68 443.75
  Q 340.73 447.11 344.00 450.26
  Q 344.26 450.51 344.44 451.20
  Q 344.55 451.62 344.95 451.45
  Z"
/>
</svg>
