<?xml version="1.0" standalone="no"?>
<!DOCTYPE svg PUBLIC "-//W3C//DTD SVG 20010904//EN"
 "http://www.w3.org/TR/2001/REC-SVG-20010904/DTD/svg10.dtd">
<svg version="1.0" xmlns="http://www.w3.org/2000/svg"
 width="1001.000000pt" height="1001.000000pt" viewBox="0 0 1001.000000 1001.000000"
 preserveAspectRatio="xMidYMid meet">
<metadata>
Created by potrace 1.14, written by Peter Selinger 2001-2017
</metadata>
<g transform="translate(0.000000,1001.000000) scale(0.100000,-0.100000)"
fill="#000000" stroke="none">
<path d="M4740 9624 c-941 -67 -1843 -420 -2576 -1007 -692 -555 -1214 -1296
-1503 -2130 -219 -634 -289 -1338 -201 -2021 173 -1349 983 -2582 2171 -3302
616 -373 1292 -594 2004 -654 179 -15 568 -12 756 5 1484 139 2783 968 3537
2259 590 1008 765 2215 486 3341 -242 976 -819 1871 -1617 2508 -698 558
-1481 887 -2343 983 -132 15 -595 26 -714 18z m735 -683 c818 -111 1531 -448
2135 -1008 l65 -60 -255 -263 c-140 -145 -662 -677 -1160 -1183 -498 -506
-981 -998 -1074 -1094 l-169 -175 569 -566 c313 -312 847 -844 1187 -1182
l618 -615 55 60 c408 451 694 1047 799 1669 53 313 59 702 15 991 -72 485
-254 944 -539 1359 -34 48 -61 91 -61 95 0 7 407 404 420 409 4 2 32 -30 62
-70 369 -494 625 -1139 715 -1808 26 -191 26 -728 0 -910 -64 -454 -194 -870
-398 -1280 -193 -386 -397 -675 -691 -976 -635 -650 -1391 -1028 -2300 -1150
-155 -21 -619 -30 -789 -15 -559 48 -1100 210 -1561 466 -139 78 -422 266
-537 359 -484 388 -854 852 -1117 1401 -207 431 -327 881 -365 1370 -14 183
-6 592 15 753 76 574 251 1074 547 1562 294 484 720 927 1199 1245 85 56 165
108 178 114 l22 12 0 -3030 0 -3030 32 -25 c137 -103 441 -266 667 -357 l146
-59 3 3439 2 3439 168 41 c169 41 375 75 557 91 176 15 669 4 840 -19z"/>
<path d="M4740 8350 c-58 -4 -140 -13 -183 -19 -43 -6 -83 -11 -88 -11 -5 0
-9 -458 -9 -1170 0 -643 3 -1170 8 -1170 16 0 1983 1990 1977 2000 -10 17
-199 108 -323 157 -413 161 -964 246 -1382 213z"/>
<path d="M2227 6868 c-143 -216 -216 -352 -297 -550 -103 -250 -176 -517 -222
-808 -19 -127 -22 -184 -22 -455 -1 -332 6 -409 60 -675 63 -309 178 -619 333
-900 57 -102 215 -345 231 -355 7 -4 10 645 10 1924 0 1154 -4 1931 -9 1931
-5 0 -43 -51 -84 -112z"/>
<path d="M4460 2920 c0 -880 3 -1112 13 -1115 34 -12 271 -36 412 -41 325 -13
677 32 1021 132 204 59 524 183 524 204 0 6 -1354 1350 -1767 1753 -100 97
-186 177 -192 177 -8 0 -11 -317 -11 -1110z"/>
</g>
</svg>
